<svg width="72" height="72" viewBox="0 0 72 72" fill="none" xmlns="http://www.w3.org/2000/svg">
<g clip-path="url(#clip0_5014_41008)">
<mask id="mask0_5014_41008" style="mask-type:luminance" maskUnits="userSpaceOnUse" x="0" y="0" width="72" height="72">
<path d="M72 0H0V72H72V0Z" fill="white"/>
</mask>
<g mask="url(#mask0_5014_41008)">
<mask id="mask1_5014_41008" style="mask-type:luminance" maskUnits="userSpaceOnUse" x="-1" y="-1" width="74" height="74">
<path d="M-0.25 -0.25H72.25V72.25H-0.25V-0.25Z" fill="white"/>
</mask>
<g mask="url(#mask1_5014_41008)">
<path d="M5.7915 35.863C5.7915 52.5467 19.3164 66.0714 35.9999 66.0714C52.6835 66.0714 66.2081 52.5467 66.2081 35.863C66.2081 19.1796 52.6835 5.65485 35.9999 5.65485C19.3164 5.65485 5.7915 19.1796 5.7915 35.863Z" fill="url(#paint0_linear_5014_41008)"/>
<path d="M5.7915 35.863C5.7915 52.5467 19.3164 66.0714 35.9999 66.0714C52.6835 66.0714 66.2081 52.5467 66.2081 35.863C66.2081 19.1796 52.6835 5.65485 35.9999 5.65485C19.3164 5.65485 5.7915 19.1796 5.7915 35.863Z" fill="url(#paint1_linear_5014_41008)"/>
<path d="M37.1489 47.4837C33.0377 47.8024 29.801 51.2394 29.801 55.4322C29.801 59.8355 33.3705 63.4049 37.7738 63.4049H50.1758H51.0617H62.5778C67.9596 63.4049 72.3223 59.0423 72.3223 53.6605C72.3223 48.2788 67.9596 43.9161 62.5778 43.9161C62.3641 43.9161 62.152 43.9229 61.9418 43.9365C59.7174 39.7106 55.2832 36.8292 50.1758 36.8292C43.7387 36.8292 38.3707 41.4064 37.1489 47.4837Z" fill="url(#paint2_linear_5014_41008)"/>
<path d="M37.7738 47.4595C33.3705 47.4595 29.801 51.029 29.801 55.4322C29.801 59.8355 33.3705 63.4049 37.7738 63.4049H51.0617V58.0898C51.0617 52.2189 46.3023 47.4595 40.4313 47.4595H37.7738Z" fill="url(#paint3_radial_5014_41008)"/>
<path d="M36.8879 50.1171C36.8879 57.4558 42.8371 63.4049 50.1758 63.4049C57.5144 63.4049 63.4636 57.4558 63.4636 50.1171C63.4636 42.7784 57.5144 36.8292 50.1758 36.8292C42.8371 36.8292 36.8879 42.7784 36.8879 50.1171Z" fill="url(#paint4_radial_5014_41008)"/>
<path d="M52.8335 53.6605C52.8335 59.0422 57.1962 63.4049 62.5779 63.4049C67.9597 63.4049 72.3223 59.0422 72.3223 53.6605C72.3223 48.2788 67.9597 43.9161 62.5779 43.9161C57.1962 43.9161 52.8335 48.2788 52.8335 53.6605Z" fill="url(#paint5_radial_5014_41008)"/>
<path d="M7.13397 11.3787C3.02277 11.6974 -0.213867 15.1344 -0.213867 19.3272C-0.213867 23.7305 3.35562 27.3 7.75887 27.3H20.161H21.0468H32.563C37.9447 27.3 42.3074 22.9373 42.3074 17.5555C42.3074 12.1738 37.9447 7.81111 32.563 7.81111C32.3492 7.81111 32.1371 7.81792 31.9269 7.83152C29.7026 3.60559 25.2683 0.724182 20.161 0.724182C13.7238 0.724182 8.35578 5.30142 7.13397 11.3787Z" fill="url(#paint6_linear_5014_41008)"/>
<path d="M7.75887 11.3545C3.35562 11.3545 -0.213867 14.924 -0.213867 19.3272C-0.213867 23.7305 3.35562 27.3 7.75887 27.3H21.0468V21.9848C21.0468 16.1139 16.2874 11.3545 10.4164 11.3545H7.75887Z" fill="url(#paint7_radial_5014_41008)"/>
<path d="M6.87305 14.0121C6.87305 21.3508 12.8222 27.3 20.1609 27.3C27.4995 27.3 33.4487 21.3508 33.4487 14.0121C33.4487 6.67342 27.4995 0.724182 20.1609 0.724182C12.8222 0.724182 6.87305 6.67342 6.87305 14.0121Z" fill="url(#paint8_radial_5014_41008)"/>
<path d="M22.8186 17.5555C22.8186 22.9373 27.1813 27.2999 32.563 27.2999C37.9448 27.2999 42.3075 22.9373 42.3075 17.5555C42.3075 12.1739 37.9448 7.8111 32.563 7.8111C27.1813 7.8111 22.8186 12.1739 22.8186 17.5555Z" fill="url(#paint9_radial_5014_41008)"/>
</g>
</g>
</g>
<defs>
<linearGradient id="paint0_linear_5014_41008" x1="19.7286" y1="15.9414" x2="46.996" y2="50.4588" gradientUnits="userSpaceOnUse">
<stop stop-color="#EEB82E"/>
<stop offset="0.5" stop-color="#EE931F"/>
<stop offset="1" stop-color="#EF6D0F"/>
</linearGradient>
<linearGradient id="paint1_linear_5014_41008" x1="19.7286" y1="15.9414" x2="46.996" y2="50.4588" gradientUnits="userSpaceOnUse">
<stop stop-color="#EEB82E"/>
<stop offset="0.5" stop-color="#EE931F"/>
<stop offset="1" stop-color="#EF6D0F"/>
</linearGradient>
<linearGradient id="paint2_linear_5014_41008" x1="51.0616" y1="36.8537" x2="51.1653" y2="62.7279" gradientUnits="userSpaceOnUse">
<stop stop-color="#AFCEFA"/>
<stop offset="0.39" stop-color="#B1D0F9"/>
<stop offset="0.78" stop-color="#B4D2F9"/>
<stop offset="0.89" stop-color="#90B4EE"/>
<stop offset="1" stop-color="#6C95E3"/>
</linearGradient>
<radialGradient id="paint3_radial_5014_41008" cx="0" cy="0" r="1" gradientUnits="userSpaceOnUse" gradientTransform="translate(43.5872 64.1651) scale(18.6783)">
<stop offset="0.69" stop-color="#8FABDD" stop-opacity="0"/>
<stop offset="0.84" stop-color="#7296D8" stop-opacity="0.5"/>
<stop offset="1" stop-color="#5582D3"/>
</radialGradient>
<radialGradient id="paint4_radial_5014_41008" cx="0" cy="0" r="1" gradientUnits="userSpaceOnUse" gradientTransform="translate(50.6118 61.4583) scale(24.6984)">
<stop offset="0.6" stop-color="#C7DFFF" stop-opacity="0"/>
<stop offset="0.8" stop-color="#8FB0EC" stop-opacity="0.5"/>
<stop offset="1" stop-color="#5782DA"/>
</radialGradient>
<radialGradient id="paint5_radial_5014_41008" cx="0" cy="0" r="1" gradientUnits="userSpaceOnUse" gradientTransform="translate(56.9777 61.603) scale(19.4814)">
<stop offset="0.48" stop-color="#8FABDD" stop-opacity="0"/>
<stop offset="0.74" stop-color="#7396DC" stop-opacity="0.5"/>
<stop offset="1" stop-color="#5782DA"/>
</radialGradient>
<linearGradient id="paint6_linear_5014_41008" x1="21.0468" y1="0.74876" x2="21.1504" y2="26.6229" gradientUnits="userSpaceOnUse">
<stop stop-color="#AFCEFA"/>
<stop offset="0.39" stop-color="#B1D0F9"/>
<stop offset="0.78" stop-color="#B4D2F9"/>
<stop offset="0.89" stop-color="#90B4EE"/>
<stop offset="1" stop-color="#6C95E3"/>
</linearGradient>
<radialGradient id="paint7_radial_5014_41008" cx="0" cy="0" r="1" gradientUnits="userSpaceOnUse" gradientTransform="translate(13.5723 28.0601) scale(18.6783)">
<stop offset="0.69" stop-color="#8FABDD" stop-opacity="0"/>
<stop offset="0.84" stop-color="#7296D8" stop-opacity="0.5"/>
<stop offset="1" stop-color="#5582D3"/>
</radialGradient>
<radialGradient id="paint8_radial_5014_41008" cx="0" cy="0" r="1" gradientUnits="userSpaceOnUse" gradientTransform="translate(20.597 25.3533) scale(24.6984)">
<stop offset="0.6" stop-color="#C7DFFF" stop-opacity="0"/>
<stop offset="0.8" stop-color="#8FB0EC" stop-opacity="0.5"/>
<stop offset="1" stop-color="#5782DA"/>
</radialGradient>
<radialGradient id="paint9_radial_5014_41008" cx="0" cy="0" r="1" gradientUnits="userSpaceOnUse" gradientTransform="translate(26.9628 25.4981) scale(19.4814)">
<stop offset="0.48" stop-color="#8FABDD" stop-opacity="0"/>
<stop offset="0.74" stop-color="#7396DC" stop-opacity="0.5"/>
<stop offset="1" stop-color="#5782DA"/>
</radialGradient>
<clipPath id="clip0_5014_41008">
<rect width="72" height="72" fill="white"/>
</clipPath>
</defs>
</svg>
