<svg width="72" height="72" viewBox="0 0 72 72" fill="none" xmlns="http://www.w3.org/2000/svg">
<g clip-path="url(#clip0_5014_41254)">
<mask id="mask0_5014_41254" style="mask-type:luminance" maskUnits="userSpaceOnUse" x="0" y="0" width="72" height="72">
<path d="M72 0H0V72H72V0Z" fill="white"/>
</mask>
<g mask="url(#mask0_5014_41254)">
<mask id="mask1_5014_41254" style="mask-type:luminance" maskUnits="userSpaceOnUse" x="-1" y="-1" width="74" height="74">
<path d="M-0.25 -0.25H72.25V72.25H-0.25V-0.25Z" fill="white"/>
</mask>
<g mask="url(#mask1_5014_41254)">
<path d="M5.04797 35.863C5.04797 52.9574 18.9058 66.815 36 66.815C53.0942 66.815 66.9517 52.9574 66.9517 35.863C66.9517 18.7689 53.0942 4.91125 36 4.91125C18.9058 4.91125 5.04797 18.7689 5.04797 35.863Z" fill="url(#paint0_linear_5014_41254)"/>
<path d="M13.3411 35.863C13.3411 48.3772 23.4858 58.5218 35.9999 58.5218C48.5139 58.5218 58.6585 48.3772 58.6585 35.863C58.6585 23.3491 48.5139 13.2044 35.9999 13.2044C23.4858 13.2044 13.3411 23.3491 13.3411 35.863Z" fill="url(#paint1_linear_5014_41254)"/>
<path d="M32.598 47.4837C28.4868 47.8024 25.2501 51.2394 25.2501 55.4322C25.2501 59.8355 28.8196 63.4049 33.2229 63.4049H45.6249H46.5107H58.0269C63.4087 63.4049 67.7714 59.0423 67.7714 53.6605C67.7714 48.2788 63.4087 43.9161 58.0269 43.9161C57.8132 43.9161 57.6011 43.9229 57.3909 43.9365C55.1665 39.7106 50.7323 36.8292 45.6249 36.8292C39.1878 36.8292 33.8198 41.4064 32.598 47.4837Z" fill="url(#paint2_linear_5014_41254)"/>
<path d="M33.2229 47.4595C28.8196 47.4595 25.2501 51.029 25.2501 55.4322C25.2501 59.8355 28.8196 63.4049 33.2229 63.4049H46.5107V58.0898C46.5107 52.2189 41.7514 47.4595 35.8804 47.4595H33.2229Z" fill="url(#paint3_radial_5014_41254)"/>
<path d="M32.337 50.1171C32.337 57.4558 38.2862 63.4049 45.6249 63.4049C52.9635 63.4049 58.9127 57.4558 58.9127 50.1171C58.9127 42.7784 52.9635 36.8292 45.6249 36.8292C38.2862 36.8292 32.337 42.7784 32.337 50.1171Z" fill="url(#paint4_radial_5014_41254)"/>
<path d="M48.2825 53.6605C48.2825 59.0422 52.6452 63.4049 58.0269 63.4049C63.4086 63.4049 67.7713 59.0422 67.7713 53.6605C67.7713 48.2788 63.4086 43.9161 58.0269 43.9161C52.6452 43.9161 48.2825 48.2788 48.2825 53.6605Z" fill="url(#paint5_radial_5014_41254)"/>
<path d="M10.6922 11.3787C6.58099 11.6974 3.34436 15.1344 3.34436 19.3272C3.34436 23.7305 6.91385 27.3 11.3171 27.3H23.7192H24.605H36.1212C41.5029 27.3 45.8656 22.9373 45.8656 17.5555C45.8656 12.1738 41.5029 7.81111 36.1212 7.81111C35.9075 7.81111 35.6954 7.81792 35.4852 7.83152C33.2608 3.60559 28.8265 0.724182 23.7192 0.724182C17.2821 0.724182 11.914 5.30142 10.6922 11.3787Z" fill="url(#paint6_linear_5014_41254)"/>
<path d="M11.3171 11.3545C6.91385 11.3545 3.34436 14.924 3.34436 19.3272C3.34436 23.7305 6.91385 27.3 11.3171 27.3H24.605V21.9848C24.605 16.1139 19.8457 11.3545 13.9747 11.3545H11.3171Z" fill="url(#paint7_radial_5014_41254)"/>
<path d="M10.4313 14.0121C10.4313 21.3508 16.3804 27.3 23.7192 27.3C31.0577 27.3 37.007 21.3508 37.007 14.0121C37.007 6.67342 31.0577 0.724182 23.7192 0.724182C16.3804 0.724182 10.4313 6.67342 10.4313 14.0121Z" fill="url(#paint8_radial_5014_41254)"/>
<path d="M26.3767 17.5555C26.3767 22.9373 30.7394 27.2999 36.1211 27.2999C41.5029 27.2999 45.8656 22.9373 45.8656 17.5555C45.8656 12.1739 41.5029 7.8111 36.1211 7.8111C30.7394 7.8111 26.3767 12.1739 26.3767 17.5555Z" fill="url(#paint9_radial_5014_41254)"/>
</g>
</g>
</g>
<defs>
<linearGradient id="paint0_linear_5014_41254" x1="19.3282" y1="15.4511" x2="47.2667" y2="50.8181" gradientUnits="userSpaceOnUse">
<stop stop-color="#EEB82E" stop-opacity="0.835897"/>
<stop offset="0.5" stop-color="#EE931F" stop-opacity="0.835897"/>
<stop offset="1" stop-color="#EF6D0F" stop-opacity="0.835897"/>
</linearGradient>
<linearGradient id="paint1_linear_5014_41254" x1="23.7951" y1="20.9202" x2="44.2479" y2="46.8111" gradientUnits="userSpaceOnUse">
<stop stop-color="#EEB82E"/>
<stop offset="0.5" stop-color="#EE931F"/>
<stop offset="1" stop-color="#EF6D0F"/>
</linearGradient>
<linearGradient id="paint2_linear_5014_41254" x1="46.5107" y1="36.8537" x2="46.6144" y2="62.7279" gradientUnits="userSpaceOnUse">
<stop stop-color="#AFCEFA"/>
<stop offset="0.39" stop-color="#B1D0F9"/>
<stop offset="0.78" stop-color="#B4D2F9"/>
<stop offset="0.89" stop-color="#90B4EE"/>
<stop offset="1" stop-color="#6C95E3"/>
</linearGradient>
<radialGradient id="paint3_radial_5014_41254" cx="0" cy="0" r="1" gradientUnits="userSpaceOnUse" gradientTransform="translate(39.0363 64.1651) scale(18.6783)">
<stop offset="0.69" stop-color="#8FABDD" stop-opacity="0"/>
<stop offset="0.84" stop-color="#7296D8" stop-opacity="0.5"/>
<stop offset="1" stop-color="#5582D3"/>
</radialGradient>
<radialGradient id="paint4_radial_5014_41254" cx="0" cy="0" r="1" gradientUnits="userSpaceOnUse" gradientTransform="translate(46.0609 61.4583) scale(24.6984)">
<stop offset="0.6" stop-color="#C7DFFF" stop-opacity="0"/>
<stop offset="0.8" stop-color="#8FB0EC" stop-opacity="0.5"/>
<stop offset="1" stop-color="#5782DA"/>
</radialGradient>
<radialGradient id="paint5_radial_5014_41254" cx="0" cy="0" r="1" gradientUnits="userSpaceOnUse" gradientTransform="translate(52.4267 61.603) scale(19.4814)">
<stop offset="0.48" stop-color="#8FABDD" stop-opacity="0"/>
<stop offset="0.74" stop-color="#7396DC" stop-opacity="0.5"/>
<stop offset="1" stop-color="#5782DA"/>
</radialGradient>
<linearGradient id="paint6_linear_5014_41254" x1="24.605" y1="0.74876" x2="24.7087" y2="26.6229" gradientUnits="userSpaceOnUse">
<stop stop-color="#AFCEFA"/>
<stop offset="0.39" stop-color="#B1D0F9"/>
<stop offset="0.78" stop-color="#B4D2F9"/>
<stop offset="0.89" stop-color="#90B4EE"/>
<stop offset="1" stop-color="#6C95E3"/>
</linearGradient>
<radialGradient id="paint7_radial_5014_41254" cx="0" cy="0" r="1" gradientUnits="userSpaceOnUse" gradientTransform="translate(17.1305 28.0601) scale(18.6783)">
<stop offset="0.69" stop-color="#8FABDD" stop-opacity="0"/>
<stop offset="0.84" stop-color="#7296D8" stop-opacity="0.5"/>
<stop offset="1" stop-color="#5582D3"/>
</radialGradient>
<radialGradient id="paint8_radial_5014_41254" cx="0" cy="0" r="1" gradientUnits="userSpaceOnUse" gradientTransform="translate(24.1552 25.3533) scale(24.6984)">
<stop offset="0.6" stop-color="#C7DFFF" stop-opacity="0"/>
<stop offset="0.8" stop-color="#8FB0EC" stop-opacity="0.5"/>
<stop offset="1" stop-color="#5782DA"/>
</radialGradient>
<radialGradient id="paint9_radial_5014_41254" cx="0" cy="0" r="1" gradientUnits="userSpaceOnUse" gradientTransform="translate(30.5209 25.4981) scale(19.4814)">
<stop offset="0.48" stop-color="#8FABDD" stop-opacity="0"/>
<stop offset="0.74" stop-color="#7396DC" stop-opacity="0.5"/>
<stop offset="1" stop-color="#5782DA"/>
</radialGradient>
<clipPath id="clip0_5014_41254">
<rect width="72" height="72" fill="white"/>
</clipPath>
</defs>
</svg>
