<svg width="72" height="72" viewBox="0 0 72 72" fill="none" xmlns="http://www.w3.org/2000/svg">
<g clip-path="url(#clip0_5082_13982)">
<mask id="mask0_5082_13982" style="mask-type:luminance" maskUnits="userSpaceOnUse" x="0" y="0" width="72" height="72">
<path d="M72 0H0V72H72V0Z" fill="white"/>
</mask>
<g mask="url(#mask0_5082_13982)">
<mask id="mask1_5082_13982" style="mask-type:luminance" maskUnits="userSpaceOnUse" x="-1" y="-1" width="74" height="74">
<path d="M-0.539978 -0.540039H72.54V72.54H-0.539978V-0.540039Z" fill="white"/>
</mask>
<g mask="url(#mask1_5082_13982)">
<path d="M21.7565 14.2421L21.7774 57.7665C21.7774 59.2035 23.3575 60.2428 24.9491 59.8527L49.9099 56.6989C50.9848 56.4354 51.7273 55.5833 51.7273 54.6127L51.6075 16.2328C51.6075 15.2695 50.8757 14.4217 49.8113 14.152L24.9496 12.1613C24.7136 12.1014 24.4773 12.0732 24.2465 12.0732C22.9157 12.0731 21.7565 13.0107 21.7565 14.2421Z" fill="url(#paint0_linear_5082_13982)"/>
<path d="M26.7457 18.8037L26.7666 53.205C26.7666 54.3587 27.8953 55.193 29.0323 54.8799L46.8654 52.9315C47.6333 52.72 48.1311 53.0465 48.1311 52.2673L47.8185 19.981C47.8185 19.2076 47.2959 18.5271 46.5356 18.3105L29.0265 17.1332C28.8579 17.0852 28.6892 17.0625 28.5242 17.0625C27.5736 17.0624 26.7457 17.8152 26.7457 18.8037Z" fill="url(#paint1_linear_5082_13982)"/>
<path d="M31.7308 28.0316V23.6887C30.3613 23.9206 28.9086 24.2285 27.3499 24.6144C27.1372 24.6671 26.9322 24.7172 26.7343 24.7649V29.1576C27.2394 29.0425 27.7844 28.9125 28.3777 28.7656C29.5761 28.4688 30.6888 28.2256 31.7308 28.0316Z" fill="#B0796B"/>
<path d="M31.7308 38.5175V34.1621C30.4005 34.409 28.9519 34.7283 27.3499 35.125C27.1383 35.1775 26.9331 35.2275 26.7343 35.2752V39.6668C27.2446 39.5512 27.7903 39.4216 28.3777 39.2762C29.6026 38.9729 30.714 38.7218 31.7308 38.5175Z" fill="#B0796B"/>
<path d="M18.8496 45.9871H18.8494C18.4365 45.9863 17.9793 45.9854 17.4685 45.9854C16.2875 45.9854 15.3302 46.9428 15.3302 48.1237C15.3302 49.3046 16.2875 50.2619 17.4685 50.2619C17.9339 50.2619 18.3638 50.263 18.7638 50.264C19.9783 50.2668 20.9184 50.2691 21.745 50.24V45.9612C21.0241 45.9913 20.1594 45.9897 18.8496 45.9871Z" fill="#B0796B"/>
<path d="M31.7308 43.9292C30.35 44.2049 28.8955 44.54 27.3497 44.9229C27.1343 44.9762 26.9294 45.0267 26.7343 45.0747V49.4752C27.2272 49.3579 27.7692 49.2246 28.3779 49.0739C29.5766 48.777 30.6903 48.5178 31.7308 48.2971V43.9292Z" fill="#B0796B"/>
<path d="M18.6915 36.2899C18.3224 36.2864 17.9215 36.2827 17.4685 36.2827C16.2875 36.2827 15.3302 37.2401 15.3302 38.421C15.3302 39.6019 16.2875 40.5592 17.4685 40.5592C17.8265 40.5592 18.1731 40.5626 18.5147 40.5658H18.5149C19.5767 40.5759 20.5897 40.5856 21.745 40.4941V36.2012C21.6655 36.2088 21.5876 36.2159 21.5109 36.2225C20.5193 36.3067 19.7315 36.2994 18.6915 36.2899Z" fill="#B0796B"/>
<path d="M19.3415 25.6955C18.8221 25.6869 18.2213 25.6768 17.4685 25.6768C16.2875 25.6768 15.3302 26.6342 15.3302 27.8151C15.3302 28.9961 16.2875 29.9534 17.4685 29.9534C18.0288 29.9534 18.5483 29.9615 19.0432 29.9692C19.9944 29.9842 20.8558 29.9978 21.745 29.9494V25.6648C20.9343 25.722 20.2668 25.7109 19.3415 25.6955Z" fill="#B0796B"/>
<path d="M29.1771 26.3542C29.1771 26.3542 34.0875 25.0782 38.6514 25.3487" stroke="#B0796B" stroke-width="4.27651" stroke-linecap="round" stroke-linejoin="round"/>
<path d="M29.1771 36.8886C29.1771 36.8886 30.2691 36.6033 31.8386 36.3059" stroke="#B0796B" stroke-width="4.27651" stroke-linecap="round" stroke-linejoin="round"/>
<path d="M29.1771 46.7168C29.1771 46.7168 30.233 46.4085 31.8148 46.071" stroke="#B0796B" stroke-width="4.27651" stroke-linecap="round" stroke-linejoin="round"/>
</g>
</g>
</g>
<defs>
<linearGradient id="paint0_linear_5082_13982" x1="23.087" y1="6.72937" x2="44.818" y2="57.8678" gradientUnits="userSpaceOnUse">
<stop stop-color="#944936"/>
<stop offset="0.5" stop-color="#7B3624"/>
<stop offset="1" stop-color="#622212"/>
</linearGradient>
<linearGradient id="paint1_linear_5082_13982" x1="16.5687" y1="35.7055" x2="56.2975" y2="35.653" gradientUnits="userSpaceOnUse">
<stop stop-color="#531506"/>
<stop offset="0.5" stop-color="#531506" stop-opacity="0.5"/>
<stop offset="1" stop-color="#531506" stop-opacity="0"/>
</linearGradient>
<clipPath id="clip0_5082_13982">
<rect width="72" height="72" fill="white"/>
</clipPath>
</defs>
</svg>
