<svg width="72" height="72" viewBox="0 0 72 72" fill="none" xmlns="http://www.w3.org/2000/svg">
<g clip-path="url(#clip0_5082_13686)">
<mask id="mask0_5082_13686" style="mask-type:luminance" maskUnits="userSpaceOnUse" x="0" y="0" width="72" height="72">
<path d="M72 0H0V72H72V0Z" fill="white"/>
</mask>
<g mask="url(#mask0_5082_13686)">
<mask id="mask1_5082_13686" style="mask-type:luminance" maskUnits="userSpaceOnUse" x="-1" y="-1" width="74" height="74">
<path d="M-0.539978 -0.540039H72.54V72.54H-0.539978V-0.540039Z" fill="white"/>
</mask>
<g mask="url(#mask1_5082_13686)">
<path d="M20.5864 12.0789L20.6045 59.7725C20.6045 61.3273 22.3141 62.4517 24.0362 62.0297L51.0398 57.9682C52.2029 57.6832 53.0062 56.7612 53.0062 55.7111L52.9028 15.1825C52.9028 14.1402 52.111 13.223 50.9595 12.9312L24.0413 9.82747C23.7859 9.76269 23.5303 9.73218 23.2806 9.73218C21.8407 9.73207 20.5864 10.7465 20.5864 12.0789Z" fill="url(#paint0_linear_5082_13686)"/>
<path d="M25.9847 17.0142L26.0027 54.837C26.0027 56.0853 27.2239 56.9879 28.4541 56.6492L47.7458 53.892C48.5766 53.6632 49.1224 53.7948 49.1224 52.9518L48.8527 19.1429C48.8527 18.3062 48.2872 17.5698 47.4646 17.3355L28.4524 15.2068C28.27 15.1549 28.0875 15.1304 27.909 15.1304C26.8805 15.1303 25.9847 15.9447 25.9847 17.0142Z" fill="url(#paint1_linear_5082_13686)"/>
<path d="M31.3809 27.3786V22.6797C29.8991 22.9305 28.3273 23.2637 26.6408 23.6812C26.4107 23.7383 26.1889 23.7925 25.9747 23.8441V28.5968C26.5213 28.4723 27.111 28.3316 27.7528 28.1727C29.0495 27.8516 30.2534 27.5884 31.3809 27.3786Z" fill="#B0796B"/>
<path d="M31.3809 38.7242V34.0117C29.9415 34.2789 28.3742 34.6244 26.6408 35.0536C26.4119 35.1103 26.1899 35.1644 25.9747 35.2161V39.9676C26.5269 39.8426 27.1174 39.7023 27.7528 39.545C29.0782 39.2168 30.2806 38.9451 31.3809 38.7242Z" fill="#B0796B"/>
<path d="M17.4438 46.8057H17.4435C16.9968 46.8048 16.5022 46.8038 15.9495 46.8038C14.6717 46.8038 13.6359 47.8397 13.6359 49.1173C13.6359 50.3951 14.6717 51.4309 15.9495 51.4309C16.453 51.4309 16.9182 51.4321 17.351 51.4331C18.665 51.4361 19.6822 51.4386 20.5765 51.4072V46.7776C19.7965 46.8102 18.861 46.8084 17.4438 46.8057Z" fill="#B0796B"/>
<path d="M31.3809 44.5793C29.8869 44.8777 28.3132 45.2402 26.6406 45.6545C26.4076 45.7122 26.1859 45.7668 25.9747 45.8187V50.58C26.5081 50.4531 27.0945 50.3088 27.7531 50.1458C29.0501 49.8246 30.2551 49.5441 31.3809 49.3053V44.5793Z" fill="#B0796B"/>
<path d="M17.2728 36.3137C16.8734 36.31 16.4396 36.306 15.9495 36.306C14.6717 36.306 13.6359 37.3418 13.6359 38.6195C13.6359 39.8973 14.6717 40.9331 15.9495 40.9331C16.3368 40.9331 16.7118 40.9367 17.0814 40.9401H17.0816C18.2305 40.9511 19.3265 40.9616 20.5765 40.8626V36.2178C20.4906 36.226 20.4062 36.2337 20.3232 36.2408C19.2504 36.3319 18.398 36.3241 17.2728 36.3137Z" fill="#B0796B"/>
<path d="M17.976 24.8509C17.414 24.8415 16.764 24.8306 15.9495 24.8306C14.6717 24.8306 13.6359 25.8665 13.6359 27.1442C13.6359 28.422 14.6717 29.4578 15.9495 29.4578C16.5557 29.4578 17.1178 29.4665 17.6533 29.4749C18.6825 29.4911 19.6144 29.5058 20.5765 29.4534V24.8176C19.6993 24.8795 18.9772 24.8675 17.976 24.8509Z" fill="#B0796B"/>
<path d="M28.6177 25.5636C28.6177 25.5636 35.5439 23.7639 40.93 24.7098C45.9657 25.5942 47.9585 27.4961 51.3763 27.8523C52.9299 28.0142 54.5586 27.6177 57.3401 27.139" stroke="#B0796B" stroke-width="4.62705" stroke-linecap="round" stroke-linejoin="round"/>
<path d="M28.6178 36.9615C28.6178 36.9615 35.1327 35.2593 39.5522 35.6826C40.61 35.7839 42.0232 35.9575 43.5728 36.5313C43.7313 36.5901 43.8913 36.6487 44.0525 36.7068" stroke="#B0796B" stroke-width="4.62705" stroke-linecap="round" stroke-linejoin="round"/>
<path d="M28.6177 47.5955C28.6177 47.5955 30.7485 46.9733 33.5495 46.4983" stroke="#B0796B" stroke-width="4.62705" stroke-linecap="round" stroke-linejoin="round"/>
</g>
</g>
</g>
<defs>
<linearGradient id="paint0_linear_5082_13686" x1="22.0285" y1="4.33022" x2="45.5408" y2="59.6604" gradientUnits="userSpaceOnUse">
<stop stop-color="#944936"/>
<stop offset="0.5" stop-color="#7B3624"/>
<stop offset="1" stop-color="#622212"/>
</linearGradient>
<linearGradient id="paint1_linear_5082_13686" x1="14.976" y1="35.6814" x2="57.9613" y2="35.6247" gradientUnits="userSpaceOnUse">
<stop stop-color="#531506"/>
<stop offset="0.5" stop-color="#531506" stop-opacity="0.5"/>
<stop offset="1" stop-color="#531506" stop-opacity="0"/>
</linearGradient>
<clipPath id="clip0_5082_13686">
<rect width="72" height="72" fill="white"/>
</clipPath>
</defs>
</svg>
