<svg width="72" height="72" viewBox="0 0 72 72" fill="none" xmlns="http://www.w3.org/2000/svg">
<g clip-path="url(#clip0_5082_13390)">
<mask id="mask0_5082_13390" style="mask-type:luminance" maskUnits="userSpaceOnUse" x="0" y="0" width="72" height="72">
<path d="M72 0H0V72H72V0Z" fill="white"/>
</mask>
<g mask="url(#mask0_5082_13390)">
<mask id="mask1_5082_13390" style="mask-type:luminance" maskUnits="userSpaceOnUse" x="-1" y="-1" width="74" height="74">
<path d="M-0.540039 -0.540039H72.54V72.54H-0.540039V-0.540039Z" fill="white"/>
</mask>
<g mask="url(#mask1_5082_13390)">
<path d="M15.7274 2.60327L15.7275 68.3867C15.7275 70.4303 17.9746 71.9082 20.2382 71.3535L55.7153 62.6755C57.244 62.3009 58.2999 61.089 58.2999 59.7087L58.2993 11.5699C58.2993 10.1999 57.2586 8.99427 55.7449 8.61069L20.2685 -0.355945C19.9328 -0.441089 19.5969 -0.481201 19.2686 -0.481201C17.376 -0.481345 15.7274 0.852008 15.7274 2.60327Z" fill="url(#paint0_linear_5082_13390)"/>
<path d="M22.8229 9.0904L22.823 61.8996C22.823 63.5404 24.4281 64.7267 26.045 64.2815L51.3858 57.318C52.4777 57.0172 53.2317 56.0499 53.2317 54.9418L53.23 16.2868C53.23 15.187 52.4867 14.2191 51.4054 13.9111L26.0665 6.71475C25.8267 6.64655 25.5867 6.61426 25.3522 6.61426C24.0003 6.61411 22.8229 7.68465 22.8229 9.0904Z" fill="url(#paint1_linear_5082_13390)"/>
<path d="M29.9286 24.6681V18.4919C27.981 18.8217 25.9149 19.2595 23.6982 19.8084C23.3957 19.8834 23.1043 19.9546 22.8228 20.0224V26.2694C23.5411 26.1057 24.3163 25.9208 25.1599 25.7119C26.8642 25.2899 28.4466 24.944 29.9286 24.6681Z" fill="#B0796B"/>
<path d="M29.9286 39.5805V33.3865C28.0367 33.7376 25.9766 34.1917 23.6982 34.7559C23.3973 34.8305 23.1056 34.9016 22.8228 34.9695V41.2149C23.5485 41.0505 24.3247 40.8662 25.1599 40.6594C26.9019 40.228 28.4824 39.8709 29.9286 39.5805Z" fill="#B0796B"/>
<path d="M11.6097 50.2029H11.6094C11.0223 50.2018 10.3721 50.2005 9.64562 50.2005C7.96618 50.2005 6.60474 51.5621 6.60474 53.2414C6.60474 54.9208 7.96618 56.2822 9.64562 56.2822C10.3075 56.2822 10.9189 56.2838 11.4878 56.2851C13.2149 56.2892 14.5519 56.2924 15.7274 56.2511V50.166C14.7022 50.2089 13.4725 50.2066 11.6097 50.2029Z" fill="#B0796B"/>
<path d="M29.9286 47.2764C27.9649 47.6685 25.8964 48.145 23.6979 48.6895C23.3917 48.7654 23.1003 48.8372 22.8228 48.9054V55.1635C23.5237 54.9967 24.2945 54.8072 25.1602 54.5929C26.865 54.1706 28.4488 53.802 29.9286 53.4882V47.2764Z" fill="#B0796B"/>
<path d="M11.385 36.412C10.8601 36.4071 10.2898 36.4019 9.64562 36.4019C7.96618 36.4019 6.60474 37.7633 6.60474 39.4428C6.60474 41.1222 7.96618 42.4836 9.64562 42.4836C10.1547 42.4836 10.6477 42.4884 11.1335 42.4929H11.1338C12.6438 42.5074 14.0844 42.5211 15.7274 42.391V36.2859C15.6144 36.2967 15.5035 36.3069 15.3945 36.3162C13.9844 36.4359 12.864 36.4256 11.385 36.412Z" fill="#B0796B"/>
<path d="M12.3093 21.3457C11.5706 21.3334 10.7163 21.3191 9.64562 21.3191C7.96618 21.3191 6.60474 22.6807 6.60474 24.36C6.60474 26.0395 7.96618 27.401 9.64562 27.401C10.4425 27.401 11.1813 27.4124 11.8852 27.4234C13.2379 27.4447 14.4628 27.4641 15.7274 27.3952V21.302C14.5745 21.3834 13.6253 21.3676 12.3093 21.3457Z" fill="#B0796B"/>
<path d="M26.2968 22.2825C26.2968 22.2825 35.4004 19.917 42.4799 21.1603C49.0987 22.3226 51.7181 24.8225 56.2105 25.2906C58.2525 25.5035 60.3933 24.9823 64.0491 24.3532" stroke="#B0796B" stroke-width="6.08176" stroke-linecap="round" stroke-linejoin="round"/>
<path d="M26.2968 37.2638C26.2968 37.2638 34.8599 35.0264 40.6688 35.5828C42.0592 35.7158 43.9168 35.9441 45.9534 36.6983C48.9641 37.8133 52.3816 38.891 55.0331 39.1674C57.075 39.3801 60.7116 39.1913 64.3674 38.562" stroke="#B0796B" stroke-width="6.08176" stroke-linecap="round" stroke-linejoin="round"/>
<path d="M26.2968 51.241C26.2968 51.241 35.4295 48.5744 42.3907 49.1956C47.646 49.6647 52.0225 52.5958 56.3312 53.3026C57.429 53.4827 58.5334 53.5991 59.8946 53.5873" stroke="#B0796B" stroke-width="6.08176" stroke-linecap="round" stroke-linejoin="round"/>
</g>
</g>
</g>
<defs>
<linearGradient id="paint0_linear_5082_13390" x1="17.6359" y1="-5.62659" x2="48.5402" y2="67.099" gradientUnits="userSpaceOnUse">
<stop stop-color="#944936"/>
<stop offset="0.5" stop-color="#7B3624"/>
<stop offset="1" stop-color="#622212"/>
</linearGradient>
<linearGradient id="paint1_linear_5082_13390" x1="8.36618" y1="35.5813" x2="64.8657" y2="35.5067" gradientUnits="userSpaceOnUse">
<stop stop-color="#531506"/>
<stop offset="0.5" stop-color="#531506" stop-opacity="0.5"/>
<stop offset="1" stop-color="#531506" stop-opacity="0"/>
</linearGradient>
<clipPath id="clip0_5082_13390">
<rect width="72" height="72" fill="white"/>
</clipPath>
</defs>
</svg>
