<svg width="72" height="72" viewBox="0 0 72 72" fill="none" xmlns="http://www.w3.org/2000/svg">
<g clip-path="url(#clip0_5082_14130)">
<mask id="mask0_5082_14130" style="mask-type:luminance" maskUnits="userSpaceOnUse" x="0" y="0" width="72" height="72">
<path d="M72 0H0V72H72V0Z" fill="white"/>
</mask>
<g mask="url(#mask0_5082_14130)">
<mask id="mask1_5082_14130" style="mask-type:luminance" maskUnits="userSpaceOnUse" x="-1" y="-1" width="74" height="74">
<path d="M-0.540039 -0.540039H72.54V72.54H-0.540039V-0.540039Z" fill="white"/>
</mask>
<g mask="url(#mask1_5082_14130)">
<path d="M21.7896 14.3025L21.8105 57.7103C21.8105 59.144 23.3869 60.1809 24.9749 59.7917L49.8778 56.6618C50.9502 56.399 51.6909 55.5488 51.6909 54.5805L51.5707 16.2642C51.5707 15.3031 50.8406 14.4573 49.7787 14.1882L24.9753 12.2265C24.7398 12.1668 24.5041 12.1387 24.2738 12.1387C22.9461 12.1386 21.7896 13.074 21.7896 14.3025Z" fill="url(#paint0_linear_5082_14130)"/>
<path d="M26.7672 18.8536L26.7882 53.1595C26.7882 54.3106 27.9143 55.1429 29.0486 54.8305L46.8404 52.9033C47.6064 52.6923 48.1029 53.0237 48.1029 52.2464L47.7893 20.0062C47.7893 19.2347 47.2678 18.5557 46.5093 18.3396L29.0427 17.187C28.8745 17.1391 28.7062 17.1165 28.5416 17.1165C27.5932 17.1164 26.7672 17.8674 26.7672 18.8536Z" fill="url(#paint1_linear_5082_14130)"/>
<path d="M31.7407 28.0503V23.7175C30.3744 23.9488 28.925 24.256 27.3699 24.641C27.1577 24.6937 26.9532 24.7436 26.7557 24.7912V29.1737C27.2597 29.0589 27.8035 28.9291 28.3953 28.7826C29.591 28.4865 30.7011 28.2439 31.7407 28.0503Z" fill="#B0796B"/>
<path d="M31.7407 38.5118V34.1665C30.4135 34.4128 28.9683 34.7314 27.3699 35.1272C27.1588 35.1795 26.9541 35.2294 26.7557 35.277V39.6584C27.2649 39.5431 27.8094 39.4138 28.3953 39.2687C29.6174 38.9661 30.7262 38.7156 31.7407 38.5118Z" fill="#B0796B"/>
<path d="M18.8894 45.9639H18.8892C18.4772 45.9631 18.0211 45.9622 17.5115 45.9622C16.3333 45.9622 15.3782 46.9174 15.3782 48.0955C15.3782 49.2736 16.3333 50.2287 17.5115 50.2287C17.9758 50.2287 18.4047 50.2299 18.8038 50.2308C20.0154 50.2336 20.9534 50.2358 21.778 50.2069V45.938C21.0588 45.9681 20.1961 45.9664 18.8894 45.9639Z" fill="#B0796B"/>
<path d="M31.7407 43.9109C30.3631 44.186 28.912 44.5203 27.3697 44.9023C27.1549 44.9555 26.9505 45.0059 26.7557 45.0537V49.444C27.2475 49.327 27.7882 49.194 28.3955 49.0437C29.5915 48.7475 30.7026 48.4888 31.7407 48.2687V43.9109Z" fill="#B0796B"/>
<path d="M18.7317 36.2892C18.3635 36.2857 17.9634 36.2821 17.5115 36.2821C16.3333 36.2821 15.3782 37.2372 15.3782 38.4153C15.3782 39.5935 16.3333 40.5486 17.5115 40.5486C17.8686 40.5486 18.2144 40.552 18.5552 40.5551H18.5554C19.6148 40.5653 20.6254 40.5749 21.778 40.4836V36.2007C21.6988 36.2083 21.621 36.2154 21.5445 36.2219C20.5553 36.3059 19.7693 36.2987 18.7317 36.2892Z" fill="#B0796B"/>
<path d="M19.3801 25.7194C18.8619 25.7108 18.2626 25.7007 17.5115 25.7007C16.3333 25.7007 15.3782 26.6559 15.3782 27.834C15.3782 29.0123 16.3333 29.9674 17.5115 29.9674C18.0705 29.9674 18.5888 29.9754 19.0826 29.9831C20.0316 29.9981 20.8909 30.0117 21.778 29.9633V25.6887C20.9692 25.7458 20.3033 25.7347 19.3801 25.7194Z" fill="#B0796B"/>
<path d="M29.1929 26.3767C29.1929 26.3767 30.2536 26.1011 31.8466 25.8335" stroke="#B0796B" stroke-width="4.26657" stroke-linecap="round" stroke-linejoin="round"/>
<path d="M29.1929 36.8865C29.1929 36.8865 30.2824 36.6019 31.8482 36.3052" stroke="#B0796B" stroke-width="4.26657" stroke-linecap="round" stroke-linejoin="round"/>
<path d="M29.1929 46.6921C29.1929 46.6921 31.1576 46.1185 33.7404 45.6804" stroke="#B0796B" stroke-width="4.26657" stroke-linecap="round" stroke-linejoin="round"/>
</g>
</g>
</g>
<defs>
<linearGradient id="paint0_linear_5082_14130" x1="23.1169" y1="6.79747" x2="44.7974" y2="57.817" gradientUnits="userSpaceOnUse">
<stop stop-color="#944936"/>
<stop offset="0.5" stop-color="#7B3624"/>
<stop offset="1" stop-color="#622212"/>
</linearGradient>
<linearGradient id="paint1_linear_5082_14130" x1="16.6138" y1="35.7064" x2="56.2503" y2="35.654" gradientUnits="userSpaceOnUse">
<stop stop-color="#531506"/>
<stop offset="0.5" stop-color="#531506" stop-opacity="0.5"/>
<stop offset="1" stop-color="#531506" stop-opacity="0"/>
</linearGradient>
<clipPath id="clip0_5082_14130">
<rect width="72" height="72" fill="white"/>
</clipPath>
</defs>
</svg>
