<svg width="72" height="72" viewBox="0 0 72 72" fill="none" xmlns="http://www.w3.org/2000/svg">
<g clip-path="url(#clip0_5082_13353)">
<mask id="mask0_5082_13353" style="mask-type:luminance" maskUnits="userSpaceOnUse" x="0" y="0" width="72" height="72">
<path d="M72 0H0V72H72V0Z" fill="white"/>
</mask>
<g mask="url(#mask0_5082_13353)">
<mask id="mask1_5082_13353" style="mask-type:luminance" maskUnits="userSpaceOnUse" x="-1" y="-1" width="74" height="74">
<path d="M-0.540039 -0.540039H72.54V72.54H-0.540039V-0.540039Z" fill="white"/>
</mask>
<g mask="url(#mask1_5082_13353)">
<path d="M15.7 2.54836V68.4362C15.7 70.4826 17.9501 71.9625 20.2167 71.407L55.7418 62.7007C57.2726 62.3256 58.3299 61.1121 58.3299 59.73V11.5513C58.3299 10.1794 57.2878 8.97215 55.7721 8.58805L20.2472 -0.41486C19.911 -0.500119 19.5746 -0.540283 19.2459 -0.540283C17.3508 -0.540429 15.7 0.794732 15.7 2.54836Z" fill="url(#paint0_linear_5082_13353)"/>
<path d="M22.8049 9.0442V61.9402C22.8049 63.5832 24.4123 64.7712 26.0313 64.3253L51.4063 57.3359C52.4998 57.0347 53.2549 56.0604 53.2549 54.9509V16.272C53.2549 15.1707 52.5106 14.2016 51.4279 13.8931L26.0529 6.66533C25.8128 6.59703 25.5725 6.5647 25.3376 6.5647C23.9839 6.56455 22.8049 7.63654 22.8049 9.0442Z" fill="url(#paint1_linear_5082_13353)"/>
<path d="M29.9204 24.6528V18.4683C27.9701 18.7984 25.9013 19.2369 23.6816 19.7865C23.3787 19.8616 23.0868 19.9329 22.8049 20.0008V26.2562C23.5243 26.0924 24.3005 25.9072 25.1452 25.698C26.8519 25.2754 28.4364 24.929 29.9204 24.6528Z" fill="#B0796B"/>
<path d="M29.9204 39.5852V33.3828C28.0259 33.7344 25.963 34.1892 23.6816 34.7541C23.3803 34.8288 23.0881 34.8999 22.8049 34.968V41.2218C23.5317 41.0572 24.3089 40.8726 25.1452 40.6656C26.8896 40.2336 28.4723 39.8761 29.9204 39.5852Z" fill="#B0796B"/>
<path d="M11.5767 50.2223H11.5764C10.9885 50.2211 10.3374 50.2198 9.60994 50.2198C7.92823 50.2198 6.56494 51.5832 6.56494 53.2648C6.56494 54.9465 7.92823 56.3098 9.60994 56.3098C10.2727 56.3098 10.8849 56.3114 11.4546 56.3127C13.184 56.3168 14.5228 56.32 15.6999 56.2786V50.1853C14.6733 50.2282 13.442 50.2259 11.5767 50.2223Z" fill="#B0796B"/>
<path d="M29.9204 47.2917C27.954 47.6844 25.8827 48.1616 23.6813 48.7068C23.3746 48.7828 23.0829 48.8547 22.8049 48.923V55.1896C23.5069 55.0226 24.2787 54.8328 25.1455 54.6182C26.8526 54.1953 28.4386 53.8262 29.9204 53.512V47.2917Z" fill="#B0796B"/>
<path d="M11.3517 36.4127C10.8261 36.4077 10.255 36.4025 9.60994 36.4025C7.92823 36.4025 6.56494 37.7658 6.56494 39.4475C6.56494 41.1292 7.92823 42.4925 9.60994 42.4925C10.1198 42.4925 10.6133 42.4973 11.0998 42.5018H11.1001C12.6122 42.5163 14.0548 42.5301 15.6999 42.3997V36.2864C15.5868 36.2973 15.4758 36.3074 15.3666 36.3167C13.9546 36.4366 12.8327 36.4263 11.3517 36.4127Z" fill="#B0796B"/>
<path d="M12.2772 21.3258C11.5376 21.3134 10.6821 21.2991 9.60994 21.2991C7.92823 21.2991 6.56494 22.6625 6.56494 24.3441C6.56494 26.0259 7.92823 27.3892 9.60994 27.3892C10.4079 27.3892 11.1477 27.4007 11.8525 27.4117C13.2071 27.433 14.4337 27.4525 15.6999 27.3834V21.282C14.5455 21.3635 13.595 21.3477 12.2772 21.3258Z" fill="#B0796B"/>
<path d="M26.2837 22.264C26.2837 22.264 35.3997 19.8953 42.4887 21.1402C49.1165 22.3041 51.7395 24.8074 56.2379 25.2762C58.2827 25.4894 60.4264 24.9675 64.0872 24.3375" stroke="#B0796B" stroke-width="6.09" stroke-linecap="round" stroke-linejoin="round"/>
<path d="M26.2837 37.2655C26.2837 37.2655 34.8584 35.0251 40.6752 35.5822C42.0675 35.7154 43.9276 35.9439 45.967 36.6992C48.9817 37.8157 52.4038 38.8948 55.0589 39.1716C57.1036 39.3846 60.7451 39.1956 64.4059 38.5654" stroke="#B0796B" stroke-width="6.09" stroke-linecap="round" stroke-linejoin="round"/>
<path d="M26.2837 51.2615C26.2837 51.2615 35.4288 48.5913 42.3994 49.2133C47.6619 49.683 52.0442 52.6181 56.3589 53.3258C58.3876 53.6588 60.4384 53.7745 64.0872 53.2661" stroke="#B0796B" stroke-width="6.09" stroke-linecap="round" stroke-linejoin="round"/>
</g>
</g>
</g>
<defs>
<linearGradient id="paint0_linear_5082_13353" x1="17.6111" y1="-5.683" x2="48.5572" y2="67.1411" gradientUnits="userSpaceOnUse">
<stop stop-color="#944936"/>
<stop offset="0.5" stop-color="#7B3624"/>
<stop offset="1" stop-color="#622212"/>
</linearGradient>
<linearGradient id="paint1_linear_5082_13353" x1="8.32871" y1="35.5806" x2="64.9048" y2="35.506" gradientUnits="userSpaceOnUse">
<stop stop-color="#531506"/>
<stop offset="0.5" stop-color="#531506" stop-opacity="0.5"/>
<stop offset="1" stop-color="#531506" stop-opacity="0"/>
</linearGradient>
<clipPath id="clip0_5082_13353">
<rect width="72" height="72" fill="white"/>
</clipPath>
</defs>
</svg>
