<svg width="72" height="72" viewBox="0 0 72 72" fill="none" xmlns="http://www.w3.org/2000/svg">
<g clip-path="url(#clip0_5082_13760)">
<mask id="mask0_5082_13760" style="mask-type:luminance" maskUnits="userSpaceOnUse" x="0" y="0" width="72" height="72">
<path d="M72 0H0V72H72V0Z" fill="white"/>
</mask>
<g mask="url(#mask0_5082_13760)">
<mask id="mask1_5082_13760" style="mask-type:luminance" maskUnits="userSpaceOnUse" x="-1" y="-1" width="74" height="74">
<path d="M-0.540039 -0.540039H72.54V72.54H-0.540039V-0.540039Z" fill="white"/>
</mask>
<g mask="url(#mask1_5082_13760)">
<path d="M21.0602 12.9654L21.0795 58.954C21.0795 60.4611 22.7367 61.5511 24.406 61.142L50.5826 57.4663C51.71 57.19 52.4887 56.2963 52.4887 55.2784L52.3779 15.5916C52.3779 14.5813 51.6104 13.6922 50.4941 13.4093L24.4091 10.783C24.1615 10.7203 23.9138 10.6907 23.6717 10.6907C22.276 10.6906 21.0602 11.6739 21.0602 12.9654Z" fill="url(#paint0_linear_5082_13760)"/>
<path d="M26.2927 17.7494L26.3121 54.17C26.3121 55.38 27.4958 56.2549 28.6882 55.9265L47.3895 53.5151C48.1948 53.2933 48.721 53.5101 48.721 52.693L48.432 19.4688C48.432 18.6577 47.8839 17.944 47.0865 17.7168L28.6848 15.9975C28.508 15.9472 28.331 15.9233 28.158 15.9233C27.161 15.9232 26.2927 16.7127 26.2927 17.7494Z" fill="url(#paint1_linear_5082_13760)"/>
<path d="M31.5224 27.6429V23.0881C30.0861 23.3313 28.5625 23.6542 26.9277 24.059C26.7047 24.1143 26.4897 24.1668 26.2821 24.2168V28.8238C26.8119 28.7031 27.3835 28.5667 28.0057 28.4126C29.2626 28.1014 30.4296 27.8463 31.5224 27.6429Z" fill="#B0796B"/>
<path d="M31.5224 38.6404V34.0725C30.1272 34.3315 28.608 34.6664 26.9277 35.0824C26.7058 35.1374 26.4907 35.1898 26.2821 35.2399V39.8457C26.8173 39.7245 27.3897 39.5886 28.0057 39.4361C29.2903 39.118 30.4559 38.8546 31.5224 38.6404Z" fill="#B0796B"/>
<path d="M18.0128 46.4743H18.0126C17.5796 46.4734 17.1001 46.4724 16.5643 46.4724C15.3258 46.4724 14.3218 47.4766 14.3218 48.715C14.3218 49.9535 15.3258 50.9576 16.5643 50.9576C17.0525 50.9576 17.5033 50.9587 17.9229 50.9597C19.1966 50.9627 20.1826 50.965 21.0495 50.9346V46.447C20.2934 46.4786 19.3866 46.4769 18.0128 46.4743Z" fill="#B0796B"/>
<path d="M31.5224 44.3162C30.0743 44.6053 28.5488 44.9568 26.9275 45.3583C26.7017 45.4143 26.4868 45.4672 26.2821 45.5175V50.1327C26.7991 50.0097 27.3675 49.8699 28.0059 49.7119C29.2631 49.4005 30.4312 49.1286 31.5224 48.8972V44.3162Z" fill="#B0796B"/>
<path d="M17.8471 36.304C17.46 36.3003 17.0394 36.2965 16.5643 36.2965C15.3258 36.2965 14.3218 37.3005 14.3218 38.539C14.3218 39.7776 15.3258 40.7816 16.5643 40.7816C16.9398 40.7816 17.3033 40.7851 17.6616 40.7884H17.6618C18.7754 40.7991 19.8378 40.8093 21.0495 40.7133V36.2109C20.9662 36.2189 20.8844 36.2264 20.804 36.2333C19.7641 36.3216 18.9378 36.314 17.8471 36.304Z" fill="#B0796B"/>
<path d="M18.5287 25.1929C17.984 25.1838 17.3539 25.1732 16.5643 25.1732C15.3258 25.1732 14.3218 26.1774 14.3218 27.4158C14.3218 28.6545 15.3258 29.6585 16.5643 29.6585C17.152 29.6585 17.6968 29.6669 18.2159 29.675C19.2136 29.6907 20.1169 29.705 21.0495 29.6542V25.1606C20.1992 25.2207 19.4992 25.209 18.5287 25.1929Z" fill="#B0796B"/>
<path d="M28.8441 25.8838C28.8441 25.8838 35.5578 24.1393 40.7787 25.0562C45.6599 25.9133 47.5916 27.7569 50.9047 28.1022C51.9903 28.2154 53.1138 28.0472 54.6665 27.7707" stroke="#B0796B" stroke-width="4.48513" stroke-linecap="round" stroke-linejoin="round"/>
<path d="M28.8441 36.932C28.8441 36.932 35.1592 35.282 39.4431 35.6923C39.5628 35.7037 39.6872 35.7162 39.816 35.73" stroke="#B0796B" stroke-width="4.48513" stroke-linecap="round" stroke-linejoin="round"/>
<path d="M28.8441 47.2398C28.8441 47.2398 29.9515 46.9164 31.6105 46.5625" stroke="#B0796B" stroke-width="4.48513" stroke-linecap="round" stroke-linejoin="round"/>
</g>
</g>
</g>
<defs>
<linearGradient id="paint0_linear_5082_13760" x1="22.457" y1="5.30151" x2="45.2481" y2="58.9346" gradientUnits="userSpaceOnUse">
<stop stop-color="#944936"/>
<stop offset="0.5" stop-color="#7B3624"/>
<stop offset="1" stop-color="#622212"/>
</linearGradient>
<linearGradient id="paint1_linear_5082_13760" x1="15.6207" y1="35.6912" x2="57.2876" y2="35.6362" gradientUnits="userSpaceOnUse">
<stop stop-color="#531506"/>
<stop offset="0.5" stop-color="#531506" stop-opacity="0.5"/>
<stop offset="1" stop-color="#531506" stop-opacity="0"/>
</linearGradient>
<clipPath id="clip0_5082_13760">
<rect width="72" height="72" fill="white"/>
</clipPath>
</defs>
</svg>
