<svg width="72" height="72" viewBox="0 0 72 72" fill="none" xmlns="http://www.w3.org/2000/svg">
<g clip-path="url(#clip0_5082_14389)">
<mask id="mask0_5082_14389" style="mask-type:luminance" maskUnits="userSpaceOnUse" x="0" y="0" width="72" height="72">
<path d="M72 0H0V72H72V0Z" fill="white"/>
</mask>
<g mask="url(#mask0_5082_14389)">
<mask id="mask1_5082_14389" style="mask-type:luminance" maskUnits="userSpaceOnUse" x="-1" y="-1" width="74" height="74">
<path d="M-0.539978 -0.540039H72.54V72.54H-0.539978V-0.540039Z" fill="white"/>
</mask>
<g mask="url(#mask1_5082_14389)">
<path d="M17.1019 5.39689L17.1085 65.8844C17.1085 67.7898 19.2036 69.1678 21.3141 68.6506L54.3968 61.474C55.8221 61.1247 56.8066 59.9948 56.8066 58.7079L56.769 12.4187C56.769 11.1414 55.7987 10.0173 54.3874 9.65961L21.3359 2.63778C21.023 2.55839 20.7097 2.521 20.4037 2.521C18.639 2.52086 17.1019 3.76406 17.1019 5.39689Z" fill="url(#paint0_linear_5082_14389)"/>
<path d="M23.7175 11.4454L23.7241 59.836C23.7241 61.3658 25.2207 62.472 26.7283 62.0568L50.3599 56.4788C51.3781 56.1984 52.071 55.6088 52.071 54.5757L51.9728 16.9505C51.9728 15.9251 51.2798 15.0227 50.2716 14.7355L26.7418 9.23042C26.5182 9.16683 26.2945 9.13672 26.0758 9.13672C24.8153 9.13658 23.7175 10.1347 23.7175 11.4454Z" fill="url(#paint1_linear_5082_14389)"/>
<path d="M30.3393 25.4343V19.6758C28.5233 19.9832 26.597 20.3915 24.5302 20.9032C24.2482 20.9731 23.9764 21.0395 23.7139 21.1027V26.9273C24.3837 26.7747 25.1064 26.6023 25.893 26.4075C27.4821 26.0141 28.9575 25.6915 30.3393 25.4343Z" fill="#B0796B"/>
<path d="M30.3393 39.3384V33.5632C28.5753 33.8906 26.6545 34.314 24.5302 34.84C24.2497 34.9096 23.9776 34.9759 23.7139 35.0392V40.8623C24.3906 40.709 25.1143 40.5372 25.893 40.3444C27.5172 39.9422 28.9909 39.6092 30.3393 39.3384Z" fill="#B0796B"/>
<path d="M13.2591 49.2424H13.2588C12.7114 49.2414 12.1051 49.2401 11.4278 49.2401C9.86192 49.2401 8.59253 50.5097 8.59253 52.0754C8.59253 53.6413 9.86192 54.9107 11.4278 54.9107C12.0449 54.9107 12.615 54.9121 13.1454 54.9134C14.7557 54.9171 16.0023 54.9201 17.0983 54.8816V49.208C16.1424 49.248 14.9959 49.2458 13.2591 49.2424Z" fill="#B0796B"/>
<path d="M30.3393 46.5139C28.5084 46.8795 26.5797 47.3239 24.5299 47.8315C24.2444 47.9022 23.9727 47.9692 23.7139 48.0328V53.8678C24.3675 53.7122 25.0862 53.5355 25.8933 53.3357C27.4828 52.942 28.9596 52.5982 30.3393 52.3057V46.5139Z" fill="#B0796B"/>
<path d="M13.0496 36.3842C12.5601 36.3796 12.0285 36.3747 11.4278 36.3747C9.86192 36.3747 8.59253 37.6441 8.59253 39.21C8.59253 40.7759 9.86192 42.0453 11.4278 42.0453C11.9025 42.0453 12.3621 42.0497 12.815 42.0539H12.8153C14.2232 42.0674 15.5665 42.0802 17.0983 41.9589V36.2666C16.993 36.2767 16.8896 36.2862 16.7879 36.2948C15.4732 36.4065 14.4286 36.3969 13.0496 36.3842Z" fill="#B0796B"/>
<path d="M13.9113 22.3367C13.2226 22.3252 12.4261 22.3118 11.4278 22.3118C9.86192 22.3118 8.59253 23.5814 8.59253 25.1471C8.59253 26.7131 9.86192 27.9825 11.4278 27.9825C12.1708 27.9825 12.8596 27.9932 13.5159 28.0034C14.7772 28.0233 15.9192 28.0414 17.0983 27.9771V22.2959C16.0233 22.3718 15.1383 22.3571 13.9113 22.3367Z" fill="#B0796B"/>
<path d="M26.953 23.2099C26.953 23.2099 28.3628 22.8437 30.4799 22.488" stroke="#B0796B" stroke-width="5.67052" stroke-linecap="round" stroke-linejoin="round"/>
<path d="M26.953 37.1783C26.953 37.1783 34.9371 35.0922 40.3533 35.6109C41.503 35.721 42.9953 35.9008 44.6429 36.4306" stroke="#B0796B" stroke-width="5.67052" stroke-linecap="round" stroke-linejoin="round"/>
<path d="M26.953 50.2104C26.953 50.2104 35.4682 47.7241 41.9587 48.3033C46.8587 48.7406 50.9392 51.4735 54.9566 52.1325C55.6094 52.2397 56.2647 52.3226 56.9831 52.3658" stroke="#B0796B" stroke-width="5.67052" stroke-linecap="round" stroke-linejoin="round"/>
</g>
</g>
</g>
<defs>
<linearGradient id="paint0_linear_5082_14389" x1="18.8778" y1="-2.81188" x2="47.6924" y2="64.9961" gradientUnits="userSpaceOnUse">
<stop stop-color="#944936"/>
<stop offset="0.5" stop-color="#7B3624"/>
<stop offset="1" stop-color="#622212"/>
</linearGradient>
<linearGradient id="paint1_linear_5082_14389" x1="10.2348" y1="35.6097" x2="62.9139" y2="35.5401" gradientUnits="userSpaceOnUse">
<stop stop-color="#531506"/>
<stop offset="0.5" stop-color="#531506" stop-opacity="0.5"/>
<stop offset="1" stop-color="#531506" stop-opacity="0"/>
</linearGradient>
<clipPath id="clip0_5082_14389">
<rect width="72" height="72" fill="white"/>
</clipPath>
</defs>
</svg>
