<svg width="72" height="72" viewBox="0 0 72 72" fill="none" xmlns="http://www.w3.org/2000/svg">
<g clip-path="url(#clip0_5082_14167)">
<mask id="mask0_5082_14167" style="mask-type:luminance" maskUnits="userSpaceOnUse" x="0" y="0" width="72" height="72">
<path d="M72 0H0V72H72V0Z" fill="white"/>
</mask>
<g mask="url(#mask0_5082_14167)">
<mask id="mask1_5082_14167" style="mask-type:luminance" maskUnits="userSpaceOnUse" x="-1" y="-1" width="74" height="74">
<path d="M-0.540039 -0.540039H72.54V72.54H-0.540039V-0.540039Z" fill="white"/>
</mask>
<g mask="url(#mask1_5082_14167)">
<path d="M21.749 14.2299L21.7699 57.7787C21.7699 59.2165 23.3508 60.2563 24.9433 59.8661L49.9172 56.7087C50.9927 56.4451 51.7355 55.5925 51.7355 54.6214L51.6157 16.2243C51.6157 15.2604 50.8835 14.4122 49.8186 14.1424L24.9438 12.1479C24.7077 12.088 24.4713 12.0598 24.2404 12.0598C22.9089 12.0597 21.749 12.9978 21.749 14.2299Z" fill="url(#paint0_linear_5082_14167)"/>
<path d="M26.7408 18.7938L26.7618 53.2149C26.7618 54.3692 27.891 55.2039 29.0286 54.8906L46.8711 52.9393C47.6393 52.7277 48.1374 53.0538 48.1374 52.2742L47.8249 19.9742C47.8249 19.2005 47.3019 18.5195 46.5412 18.3029L29.0228 17.1225C28.8541 17.0745 28.6853 17.0518 28.5203 17.0518C27.5692 17.0517 26.7408 17.8048 26.7408 18.7938Z" fill="url(#paint1_linear_5082_14167)"/>
<path d="M31.7286 28.0278V23.6826C30.3584 23.9146 28.9048 24.2227 27.3453 24.6088C27.1325 24.6615 26.9274 24.7117 26.7294 24.7593V29.1543C27.2348 29.0392 27.7801 28.9091 28.3736 28.7621C29.5727 28.4652 30.686 28.2219 31.7286 28.0278Z" fill="#B0796B"/>
<path d="M31.7286 38.5191V34.1614C30.3976 34.4084 28.9482 34.7279 27.3453 35.1248C27.1336 35.1773 26.9283 35.2273 26.7294 35.2751V39.6689C27.24 39.5533 27.786 39.4236 28.3736 39.2782C29.5992 38.9747 30.7112 38.7234 31.7286 38.5191Z" fill="#B0796B"/>
<path d="M18.8405 45.9925H18.8403C18.4272 45.9917 17.9698 45.9908 17.4587 45.9908C16.2772 45.9908 15.3193 46.9487 15.3193 48.1302C15.3193 49.3117 16.2772 50.2695 17.4587 50.2695C17.9244 50.2695 18.3545 50.2707 18.7548 50.2716C19.9698 50.2744 20.9104 50.2767 21.7375 50.2476V45.9666C21.0162 45.9967 20.1511 45.9951 18.8405 45.9925Z" fill="#B0796B"/>
<path d="M31.7286 43.9336C30.3471 44.2095 28.8918 44.5447 27.3451 44.9278C27.1296 44.9812 26.9247 45.0317 26.7294 45.0797V49.4825C27.2225 49.3652 27.7648 49.2318 28.3738 49.081C29.5732 48.784 30.6875 48.5246 31.7286 48.3038V43.9336Z" fill="#B0796B"/>
<path d="M18.6824 36.2901C18.3131 36.2867 17.912 36.283 17.4587 36.283C16.2772 36.283 15.3193 37.2408 15.3193 38.4224C15.3193 39.6039 16.2772 40.5618 17.4587 40.5618C17.8169 40.5618 18.1637 40.5651 18.5055 40.5683H18.5057C19.568 40.5785 20.5816 40.5882 21.7375 40.4966V36.2014C21.658 36.2091 21.58 36.2162 21.5033 36.2227C20.5112 36.307 19.723 36.2997 18.6824 36.2901Z" fill="#B0796B"/>
<path d="M19.3327 25.6902C18.813 25.6815 18.212 25.6714 17.4587 25.6714C16.2772 25.6714 15.3193 26.6294 15.3193 27.8108C15.3193 28.9925 16.2772 29.9503 17.4587 29.9503C18.0193 29.9503 18.5391 29.9583 19.0343 29.9661C19.986 29.9811 20.8478 29.9947 21.7375 29.9462V25.6594C20.9263 25.7167 20.2585 25.7056 19.3327 25.6902Z" fill="#B0796B"/>
<path d="M29.1735 26.3494C29.1735 26.3494 30.2372 26.073 31.8347 25.8047" stroke="#B0796B" stroke-width="4.27875" stroke-linecap="round" stroke-linejoin="round"/>
<path d="M29.1735 36.8894C29.1735 36.8894 30.2661 36.604 31.8364 36.3064" stroke="#B0796B" stroke-width="4.27875" stroke-linecap="round" stroke-linejoin="round"/>
<path d="M29.1735 46.7226C29.1735 46.7226 32.1932 45.8409 35.6702 45.4272" stroke="#B0796B" stroke-width="4.27875" stroke-linecap="round" stroke-linejoin="round"/>
</g>
</g>
</g>
<defs>
<linearGradient id="paint0_linear_5082_14167" x1="23.0802" y1="6.71424" x2="44.8226" y2="57.8794" gradientUnits="userSpaceOnUse">
<stop stop-color="#944936"/>
<stop offset="0.5" stop-color="#7B3624"/>
<stop offset="1" stop-color="#622212"/>
</linearGradient>
<linearGradient id="paint1_linear_5082_14167" x1="16.5585" y1="35.7056" x2="56.3081" y2="35.6531" gradientUnits="userSpaceOnUse">
<stop stop-color="#531506"/>
<stop offset="0.5" stop-color="#531506" stop-opacity="0.5"/>
<stop offset="1" stop-color="#531506" stop-opacity="0"/>
</linearGradient>
<clipPath id="clip0_5082_14167">
<rect width="72" height="72" fill="white"/>
</clipPath>
</defs>
</svg>
