<svg width="72" height="72" viewBox="0 0 72 72" fill="none" xmlns="http://www.w3.org/2000/svg">
<g clip-path="url(#clip0_5082_14537)">
<mask id="mask0_5082_14537" style="mask-type:luminance" maskUnits="userSpaceOnUse" x="0" y="0" width="72" height="72">
<path d="M72 0H0V72H72V0Z" fill="white"/>
</mask>
<g mask="url(#mask0_5082_14537)">
<mask id="mask1_5082_14537" style="mask-type:luminance" maskUnits="userSpaceOnUse" x="-1" y="-1" width="74" height="74">
<path d="M-0.540039 -0.540039H72.54V72.54H-0.540039V-0.540039Z" fill="white"/>
</mask>
<g mask="url(#mask1_5082_14537)">
<path d="M16.1135 3.39453L16.1155 67.6802C16.1155 69.685 18.3199 71.1348 20.5405 70.5906L55.3451 62.3453C56.8448 61.9779 57.8806 60.789 57.8806 59.435L57.8691 11.7988C57.8691 10.4548 56.8482 9.27209 55.3633 8.89579L20.5683 0.491527C20.239 0.408 19.9095 0.368652 19.5874 0.368652C17.7308 0.368509 16.1135 1.67654 16.1135 3.39453Z" fill="url(#paint0_linear_5082_14537)"/>
<path d="M23.0742 9.75822L23.0762 61.316C23.0762 62.9257 24.6509 64.0895 26.2371 63.6527L51.0978 57.0893C52.169 56.7943 52.9057 55.9368 52.9057 54.8498L52.8757 16.465C52.8757 15.3861 52.1466 14.4367 51.0858 14.1345L26.2562 7.42769C26.021 7.36078 25.7856 7.3291 25.5555 7.3291C24.2293 7.32896 23.0742 8.37916 23.0742 9.75822Z" fill="url(#paint1_linear_5082_14537)"/>
<path d="M30.044 24.8836V18.8247C28.1333 19.1482 26.1065 19.5777 23.932 20.1161C23.6352 20.1897 23.3493 20.2596 23.0731 20.3261V26.4544C23.7778 26.2939 24.5383 26.1125 25.3659 25.9075C27.0378 25.4935 28.5902 25.1542 30.044 24.8836Z" fill="#B0796B"/>
<path d="M30.044 39.5124V33.436C28.188 33.7805 26.167 34.226 23.932 34.7794C23.6368 34.8526 23.3506 34.9223 23.0731 34.989V41.1157C23.7851 40.9545 24.5465 40.7737 25.3659 40.5708C27.0748 40.1476 28.6253 39.7973 30.044 39.5124Z" fill="#B0796B"/>
<path d="M12.073 49.9332H12.0727C11.4967 49.9321 10.8589 49.9308 10.1462 49.9308C8.49867 49.9308 7.16309 51.2665 7.16309 52.9139C7.16309 54.5614 8.49867 55.897 10.1462 55.897C10.7955 55.897 11.3953 55.8986 11.9534 55.8999C13.6477 55.9038 14.9593 55.907 16.1125 55.8665V49.897C15.1067 49.939 13.9004 49.9367 12.073 49.9332Z" fill="#B0796B"/>
<path d="M30.044 47.0625C28.1176 47.4472 26.0883 47.9147 23.9317 48.4488C23.6312 48.5232 23.3454 48.5937 23.0731 48.6606V54.7999C23.7608 54.6362 24.517 54.4503 25.3661 54.24C27.0385 53.8258 28.5923 53.4641 30.044 53.1563V47.0625Z" fill="#B0796B"/>
<path d="M11.8526 36.4045C11.3376 36.3997 10.7782 36.3945 10.1462 36.3945C8.49867 36.3945 7.16309 37.7301 7.16309 39.3777C7.16309 41.0252 8.49867 42.3608 10.1462 42.3608C10.6457 42.3608 11.1292 42.3655 11.6058 42.3699H11.6061C13.0874 42.3841 14.5007 42.3976 16.1125 42.2699V36.2808C16.0017 36.2914 15.8928 36.3014 15.7859 36.3105C14.4026 36.4279 13.3035 36.4178 11.8526 36.4045Z" fill="#B0796B"/>
<path d="M12.7593 21.624C12.0347 21.6119 11.1966 21.5978 10.1462 21.5978C8.49867 21.5978 7.16309 22.9335 7.16309 24.5809C7.16309 26.2286 8.49867 27.5642 10.1462 27.5642C10.9279 27.5642 11.6527 27.5754 12.3432 27.5862C13.6703 27.6071 14.8719 27.6261 16.1125 27.5585V21.5811C14.9814 21.6609 14.0503 21.6454 12.7593 21.624Z" fill="#B0796B"/>
<path d="M26.4811 22.5429C26.4811 22.5429 31.9967 21.1098 37.7297 21.0879" stroke="#B0796B" stroke-width="5.96625" stroke-linecap="round" stroke-linejoin="round"/>
<path d="M26.4811 37.2402C26.4811 37.2402 34.8816 35.0453 40.5802 35.5911C41.9442 35.7216 43.7664 35.9455 45.7644 36.6855C48.7178 37.7793 52.0705 38.8364 54.6716 39.1076C55.3127 39.1744 56.1139 39.2008 57.0247 39.1858" stroke="#B0796B" stroke-width="5.96625" stroke-linecap="round" stroke-linejoin="round"/>
<path d="M26.4811 50.9516C26.4811 50.9516 35.4404 48.3357 42.2693 48.9451C47.4249 49.4052 51.7182 52.2806 55.9451 52.974C57.9326 53.3002 59.9418 53.4135 63.5164 52.9155" stroke="#B0796B" stroke-width="5.96625" stroke-linecap="round" stroke-linejoin="round"/>
</g>
</g>
</g>
<defs>
<linearGradient id="paint0_linear_5082_14537" x1="17.9847" y1="-4.83584" x2="48.302" y2="66.5084" gradientUnits="userSpaceOnUse">
<stop stop-color="#944936"/>
<stop offset="0.5" stop-color="#7B3624"/>
<stop offset="1" stop-color="#622212"/>
</linearGradient>
<linearGradient id="paint1_linear_5082_14537" x1="8.89106" y1="35.5891" x2="64.3175" y2="35.516" gradientUnits="userSpaceOnUse">
<stop stop-color="#531506"/>
<stop offset="0.5" stop-color="#531506" stop-opacity="0.5"/>
<stop offset="1" stop-color="#531506" stop-opacity="0"/>
</linearGradient>
<clipPath id="clip0_5082_14537">
<rect width="72" height="72" fill="white"/>
</clipPath>
</defs>
</svg>
