<svg width="72" height="72" viewBox="0 0 72 72" fill="none" xmlns="http://www.w3.org/2000/svg">
<g clip-path="url(#clip0_5082_14685)">
<mask id="mask0_5082_14685" style="mask-type:luminance" maskUnits="userSpaceOnUse" x="0" y="0" width="72" height="72">
<path d="M72 0H0V72H72V0Z" fill="white"/>
</mask>
<g mask="url(#mask0_5082_14685)">
<mask id="mask1_5082_14685" style="mask-type:luminance" maskUnits="userSpaceOnUse" x="-1" y="-1" width="74" height="74">
<path d="M-0.539978 -0.540039H72.54V72.54H-0.539978V-0.540039Z" fill="white"/>
</mask>
<g mask="url(#mask1_5082_14685)">
<path d="M15.777 2.70636L15.7774 68.2955C15.7774 70.3341 18.019 71.8084 20.277 71.255L55.6681 62.6352C57.1931 62.2615 58.2464 61.0526 58.2464 59.6756L58.2442 11.597C58.2442 10.2303 57.2061 9.0276 55.6961 8.64495L20.307 -0.245656C19.9721 -0.330593 19.637 -0.370605 19.3095 -0.370605C17.4216 -0.370751 15.777 0.959361 15.777 2.70636Z" fill="url(#paint0_linear_5082_14685)"/>
<path d="M22.8551 9.17764L22.8555 61.824C22.8555 63.4608 24.4567 64.6443 26.0697 64.2001L51.349 57.2906C52.4383 56.9906 53.19 56.0383 53.19 54.9329L53.1844 16.3077C53.1844 15.2106 52.4429 14.2451 51.3643 13.9378L26.0908 6.80777C25.8516 6.73973 25.6123 6.70752 25.3782 6.70752C24.0296 6.70738 22.8551 7.77531 22.8551 9.17764Z" fill="url(#paint1_linear_5082_14685)"/>
<path d="M29.9435 24.6958V18.5347C28.0006 18.8636 25.9395 19.3004 23.7283 19.8479C23.4265 19.9227 23.1357 19.9938 22.8549 20.0614V26.2932C23.5715 26.1299 24.3448 25.9455 25.1864 25.737C26.8866 25.3161 28.4651 24.971 29.9435 24.6958Z" fill="#B0796B"/>
<path d="M29.9435 39.572V33.3931C28.0562 33.7434 26.0011 34.1964 23.7283 34.7591C23.4281 34.8335 23.137 34.9045 22.8549 34.9722V41.2024C23.5789 41.0385 24.3532 40.8546 25.1864 40.6483C26.9241 40.218 28.5008 39.8618 29.9435 39.572Z" fill="#B0796B"/>
<path d="M11.6692 50.1687H11.6689C11.0831 50.1675 10.4345 50.1662 9.70982 50.1662C8.03447 50.1662 6.67633 51.5245 6.67633 53.1997C6.67633 54.8751 8.03447 56.2332 9.70982 56.2332C10.3701 56.2332 10.98 56.2348 11.5475 56.2361C13.2704 56.2401 14.6041 56.2433 15.7768 56.2021V50.1318C14.7541 50.1746 13.5274 50.1723 11.6692 50.1687Z" fill="#B0796B"/>
<path d="M29.9435 47.249C27.9845 47.6402 25.9211 48.1156 23.728 48.6587C23.4225 48.7344 23.1318 48.8061 22.8549 48.8741V55.117C23.5542 54.9506 24.3231 54.7615 25.1867 54.5477C26.8873 54.1265 28.4673 53.7587 29.9435 53.4457V47.249Z" fill="#B0796B"/>
<path d="M11.445 36.4115C10.9213 36.4066 10.3525 36.4014 9.70982 36.4014C8.03447 36.4014 6.67633 37.7595 6.67633 39.4348C6.67633 41.1102 8.03447 42.4683 9.70982 42.4683C10.2177 42.4683 10.7094 42.4731 11.1941 42.4776H11.1943C12.7007 42.492 14.1378 42.5057 15.7768 42.3759V36.2856C15.6641 36.2965 15.5535 36.3066 15.4447 36.3158C14.038 36.4353 12.9204 36.425 11.445 36.4115Z" fill="#B0796B"/>
<path d="M12.367 21.3815C11.6302 21.3692 10.7779 21.3549 9.70982 21.3549C8.03447 21.3549 6.67633 22.7132 6.67633 24.3884C6.67633 26.0639 8.03447 27.422 9.70982 27.422C10.5047 27.422 11.2417 27.4335 11.9439 27.4444C13.2934 27.4657 14.5153 27.485 15.7768 27.4163V21.3379C14.6267 21.4191 13.6798 21.4033 12.367 21.3815Z" fill="#B0796B"/>
<path d="M26.3204 22.3162C26.3204 22.3162 35.402 19.9565 42.4642 21.1967C46.3469 21.8785 48.85 23.0219 51.1647 23.943" stroke="#B0796B" stroke-width="6.06697" stroke-linecap="round" stroke-linejoin="round"/>
<path d="M26.3204 37.2612C26.3204 37.2612 34.8627 35.0293 40.6575 35.5843C42.0446 35.717 43.8976 35.9447 45.9293 36.6971C48.9326 37.8094 52.3418 38.8844 54.9869 39.1602C57.0238 39.3724 60.6515 39.184 64.2985 38.5562" stroke="#B0796B" stroke-width="6.06697" stroke-linecap="round" stroke-linejoin="round"/>
<path d="M26.3204 51.2038C26.3204 51.2038 35.431 48.5437 42.3752 49.1634C47.6178 49.6313 51.9836 52.5553 56.2819 53.2604C58.3029 53.592 60.346 53.7073 63.981 53.2009" stroke="#B0796B" stroke-width="6.06697" stroke-linecap="round" stroke-linejoin="round"/>
</g>
</g>
</g>
<defs>
<linearGradient id="paint0_linear_5082_14685" x1="17.6806" y1="-5.52517" x2="48.5098" y2="67.0235" gradientUnits="userSpaceOnUse">
<stop stop-color="#944936"/>
<stop offset="0.5" stop-color="#7B3624"/>
<stop offset="1" stop-color="#622212"/>
</linearGradient>
<linearGradient id="paint1_linear_5082_14685" x1="8.43342" y1="35.5824" x2="64.7956" y2="35.508" gradientUnits="userSpaceOnUse">
<stop stop-color="#531506"/>
<stop offset="0.5" stop-color="#531506" stop-opacity="0.5"/>
<stop offset="1" stop-color="#531506" stop-opacity="0"/>
</linearGradient>
<clipPath id="clip0_5082_14685">
<rect width="72" height="72" fill="white"/>
</clipPath>
</defs>
</svg>
